<svg width="422" height="360" viewBox="0 0 422 360" fill="none" xmlns="http://www.w3.org/2000/svg">
<g clip-path="url(#clip0_833_17058)">
<path d="M0 211C0 94.4679 94.4679 0 211 0C327.532 0 422 94.4679 422 211V360H0V211Z" fill="#2EBEF0"/>
<path d="M336.932 256.821C341.153 261.378 345.659 266.648 345.391 272.862C345.124 279.076 336.665 284.328 332.533 279.681C332.907 276.369 337.359 274.803 340.387 276.209C343.414 277.616 345.124 280.874 346.122 284.061C349.131 293.586 347.6 304.411 342.097 312.743C340.333 315.414 338 317.942 334.901 318.797C331.82 319.651 327.938 318.156 327.118 315.058C326.085 311.123 330.841 307.527 334.812 308.381C338.784 309.254 341.509 312.993 342.88 316.82C347.44 329.497 341.135 343.171 336.7 355.9C332.265 368.63 330.716 385.135 341.384 393.378C343.468 394.998 346.104 396.173 348.704 395.764C351.304 395.354 353.691 392.897 353.281 390.298C352.658 386.274 346.353 385.794 343.628 388.82C340.903 391.829 340.814 396.334 340.885 400.393C341.01 408.832 341.153 417.289 341.277 425.728" fill="#2EBEF0"/>
<path d="M336.932 256.821C341.153 261.378 345.659 266.648 345.391 272.862C345.124 279.076 336.665 284.328 332.533 279.681C332.907 276.369 337.359 274.803 340.387 276.209C343.414 277.616 345.124 280.874 346.122 284.061C349.131 293.586 347.6 304.411 342.097 312.743C340.333 315.414 338 317.942 334.901 318.797C331.82 319.651 327.938 318.156 327.118 315.058C326.085 311.123 330.841 307.527 334.812 308.381C338.784 309.254 341.509 312.993 342.88 316.82C347.44 329.497 341.135 343.171 336.7 355.9C332.265 368.63 330.716 385.135 341.384 393.378C343.468 394.998 346.104 396.173 348.704 395.764C351.304 395.354 353.691 392.897 353.281 390.298C352.658 386.274 346.353 385.794 343.628 388.82C340.903 391.829 340.814 396.334 340.885 400.393C341.01 408.832 341.153 417.289 341.277 425.728" stroke="white" stroke-width="1.01" stroke-linecap="round" stroke-linejoin="round"/>
<path d="M349.271 259.776L328.988 259.809L334.862 238.725C336.699 238.206 338.037 238.069 339.404 237.929L339.409 237.929C340.733 237.794 342.086 237.655 343.898 237.162C344.836 240.744 346.172 246.366 347.295 251.185C347.883 253.707 348.411 256.007 348.793 257.677C348.984 258.511 349.138 259.188 349.244 259.657L349.271 259.776Z" fill="#2EBEF0" stroke="white"/>
<path d="M385.154 170.81H385.138L385.142 170.307C385.265 153.304 378.955 137.849 367.565 127.361L385.154 170.81ZM385.154 170.81C384.923 189.621 379.617 208.086 370.617 222.063L370.617 222.064C366.304 228.792 360.806 232.666 354.831 236.877L354.649 237.005C347.647 241.939 340.124 246.564 331.589 246.564C315.999 246.564 300.987 235.437 289.838 220.255C278.698 205.085 271.517 185.998 271.517 170.31C271.517 152.004 281.582 136.433 294.676 126.086C303.983 118.745 313.196 113.852 328.34 113.517L385.154 170.81ZM328.34 113.517C344.569 113.163 357.905 118.48 367.564 127.361L328.34 113.517Z" fill="#2EBEF0" stroke="white"/>
<path d="M309.778 130.708L309.779 130.708C310.767 131.431 311.172 132.348 311.159 133.468C311.146 134.624 310.685 136.011 309.873 137.602C308.502 140.29 306.221 143.393 303.791 146.699C303.344 147.308 302.892 147.923 302.439 148.544C301.981 149.171 301.538 149.781 301.11 150.372C298.804 153.551 296.909 156.165 295.134 157.793C294.088 158.752 293.138 159.316 292.225 159.475C291.337 159.63 290.412 159.415 289.371 158.655C287.327 157.16 286.466 154.287 286.881 150.692C287.295 147.114 288.969 142.935 291.831 139.021C294.692 135.107 298.168 132.241 301.451 130.758C304.749 129.268 307.744 129.215 309.778 130.708Z" fill="#2EBEF0" stroke="white"/>
<path d="M357.609 126.583C365.214 132.21 371.536 139.527 376.024 147.859L357.609 126.583Z" fill="#2EBEF0"/>
<path d="M357.609 126.583C365.214 132.21 371.536 139.527 376.024 147.859" stroke="white" stroke-linecap="round" stroke-linejoin="round"/>
<path d="M377.645 151.954C379.497 156.031 380.708 160.411 381.224 164.862L377.645 151.954Z" fill="#2EBEF0"/>
<path d="M377.645 151.954C379.497 156.031 380.708 160.411 381.224 164.862" stroke="white" stroke-linecap="round" stroke-linejoin="round"/>
<path d="M348.704 125.248C352.64 127.919 356.273 131.017 359.533 134.471L348.704 125.248Z" fill="#2EBEF0"/>
<path d="M348.704 125.248C352.64 127.919 356.273 131.017 359.533 134.471" stroke="white" stroke-linecap="round" stroke-linejoin="round"/>
<path d="M276.484 293.497C279.191 301.099 281.916 308.844 282.326 316.909C282.646 323.55 281.168 330.547 277.303 335.871C275.059 338.951 269.912 336.512 271.123 332.897C271.266 332.47 271.48 332.061 271.747 331.704C273.706 329.176 277.66 328.909 280.491 330.387C283.323 331.865 285.247 334.678 286.707 337.526C291.551 346.98 292.709 358.25 289.859 368.488C288.809 372.262 287.081 376.09 283.875 378.351C280.67 380.612 275.665 380.666 273.225 377.586C273.617 374.595 277.553 373.188 280.331 374.345C283.109 375.503 284.819 378.298 286.066 381.04C291.961 394.108 290.981 410.078 283.377 422.256C282.522 423.609 281.044 424.553 279.441 424.535C274.721 424.535 276.057 416.968 280.153 416.327C284.018 415.722 287.402 418.98 289.396 422.345C294.953 431.764 294.739 444.315 288.844 453.538C287.117 456.244 284.677 458.826 281.489 459.324C279.316 459.663 276.894 458.541 275.754 456.778C274.899 455.461 275.825 453.698 277.392 453.663C283.947 453.502 289.485 460.642 291.07 467.461C292.834 475.045 292.193 483.413 296.2 490.108" fill="#2EBEF0"/>
<path d="M276.484 293.497C279.191 301.099 281.916 308.844 282.326 316.909C282.646 323.55 281.168 330.547 277.303 335.871C275.059 338.951 269.912 336.512 271.123 332.897C271.266 332.47 271.48 332.061 271.747 331.704C273.706 329.176 277.66 328.909 280.491 330.387C283.323 331.865 285.247 334.678 286.707 337.526C291.551 346.98 292.709 358.25 289.859 368.488C288.809 372.262 287.081 376.09 283.875 378.351C280.67 380.612 275.665 380.666 273.225 377.586C273.617 374.595 277.553 373.188 280.331 374.345C283.109 375.503 284.819 378.298 286.066 381.04C291.961 394.108 290.981 410.078 283.377 422.256C282.522 423.609 281.044 424.553 279.441 424.535C274.721 424.535 276.057 416.968 280.153 416.327C284.018 415.722 287.402 418.98 289.396 422.345C294.953 431.764 294.739 444.315 288.844 453.538C287.117 456.244 284.677 458.826 281.489 459.324C279.316 459.663 276.894 458.541 275.754 456.778C274.899 455.461 275.825 453.698 277.392 453.663C283.947 453.502 289.485 460.642 291.07 467.461C292.834 475.045 292.193 483.413 296.2 490.108" stroke="white" stroke-width="1.01" stroke-linecap="round" stroke-linejoin="round"/>
<path d="M285.626 311.008L271.349 312.111L273.179 289.881C274.738 289.386 275.882 289.253 277.058 289.115L277.063 289.115C278.203 288.982 279.374 288.846 280.927 288.371C281.742 291.957 282.905 297.557 283.884 302.359C284.398 304.881 284.861 307.181 285.195 308.85C285.363 309.685 285.498 310.362 285.591 310.831L285.626 311.008Z" fill="#2EBEF0" stroke="white"/>
<path d="M335.915 223.136V223.117V223.101C334.726 207.444 328.361 193.231 318.371 182.944L318.371 182.943C308.397 172.655 294.793 166.288 279.103 166.288C263.408 166.288 249.196 172.659 238.921 182.931L238.92 182.932C233.059 188.773 228.487 195.885 225.627 203.827L225.627 203.827C223.455 209.845 222.272 216.339 222.272 223.1C222.272 237.72 224.948 251.924 234.666 265.756L234.667 265.756C240.095 273.496 246.736 282.326 254.125 289.219C261.525 296.122 269.598 301.009 277.891 301.009C282.92 301.009 288.097 298.677 293.148 295.491C296.723 293.236 300.186 290.587 303.462 288.081C304.817 287.044 306.14 286.032 307.426 285.083C313.935 280.273 319.477 271.425 324.167 263.938L324.219 263.855L335.915 223.136ZM335.915 223.136L335.916 223.155M335.915 223.136L335.916 223.155M335.916 223.155C337.152 239.493 332.204 251.083 324.219 263.855L335.916 223.155Z" fill="#2EBEF0" stroke="white"/>
<path d="M306.673 179.836C316.629 186.067 324.269 195.948 327.778 207.147L306.673 179.836Z" fill="#2EBEF0"/>
<path d="M306.673 179.836C316.629 186.067 324.269 195.948 327.778 207.147" stroke="white" stroke-linecap="round" stroke-linejoin="round"/>
<path d="M329.167 212.916C330.253 216.85 330.93 220.892 331.143 224.969L329.167 212.916Z" fill="#2EBEF0"/>
<path d="M329.167 212.916C330.253 216.85 330.93 220.892 331.143 224.969" stroke="white" stroke-linecap="round" stroke-linejoin="round"/>
<path d="M322.061 204.459C323.396 208.607 324.75 212.755 326.086 216.922L322.061 204.459Z" fill="#2EBEF0"/>
<path d="M322.061 204.459C323.396 208.607 324.75 212.755 326.086 216.922" stroke="white" stroke-linecap="round" stroke-linejoin="round"/>
<path d="M84.9969 264.836C81.5323 268.577 77.8338 272.903 78.0531 278.003C78.2724 283.103 85.2162 287.414 88.6077 283.6C88.3008 280.882 84.6461 279.596 82.1609 280.751C79.6758 281.905 78.2724 284.579 77.4537 287.195C74.9832 295.014 76.2404 303.899 80.7576 310.738C82.2048 312.93 84.1198 315.005 86.6635 315.707C89.1925 316.408 92.3793 315.181 93.0518 312.638C93.8997 309.408 89.9965 306.456 86.7366 307.158C83.4766 307.874 81.24 310.943 80.1143 314.085C76.372 324.49 81.547 335.713 85.187 346.162C88.827 356.611 90.0988 370.158 81.3423 376.924C79.6319 378.254 77.4684 379.219 75.334 378.883C73.1997 378.546 71.2408 376.53 71.5771 374.396C72.0887 371.093 77.2637 370.699 79.5004 373.183C81.737 375.653 81.8101 379.35 81.7516 382.682C81.6493 389.609 81.5323 396.551 81.43 403.478" fill="#2EBEF0"/>
<path d="M84.9969 264.836C81.5323 268.577 77.8338 272.903 78.0531 278.003C78.2724 283.103 85.2162 287.414 88.6077 283.6C88.3008 280.882 84.6461 279.596 82.1609 280.751C79.6758 281.905 78.2724 284.579 77.4537 287.195C74.9832 295.014 76.2404 303.899 80.7576 310.738C82.2048 312.93 84.1198 315.005 86.6635 315.707C89.1925 316.408 92.3793 315.181 93.0518 312.638C93.8997 309.408 89.9965 306.456 86.7366 307.158C83.4766 307.874 81.24 310.943 80.1143 314.085C76.372 324.49 81.547 335.713 85.187 346.162C88.827 356.611 90.0988 370.158 81.3423 376.924C79.6319 378.254 77.4684 379.219 75.334 378.883C73.1997 378.546 71.2408 376.53 71.5771 374.396C72.0887 371.093 77.2637 370.699 79.5004 373.183C81.737 375.653 81.8101 379.35 81.7516 382.682C81.6493 389.609 81.5323 396.551 81.43 403.478" stroke="white" stroke-width="1.01" stroke-linecap="round" stroke-linejoin="round"/>
<path d="M74.9803 267.172L91.399 267.199L86.6221 250.056C85.1474 249.643 84.0673 249.532 82.9579 249.419L82.9534 249.419C81.8868 249.31 80.7933 249.198 79.3426 248.81C78.5742 251.752 77.49 256.314 76.5774 260.231C76.0952 262.301 75.6614 264.189 75.3481 265.559C75.193 266.237 75.0675 266.788 74.9803 267.172Z" fill="#2EBEF0" stroke="white"/>
<path d="M45.5053 194.327H45.5184L45.5147 193.824C45.4133 179.89 50.5848 167.229 59.9133 158.64C67.8233 151.367 78.7474 147.01 92.0464 147.3L45.5053 194.327ZM45.5053 194.327C45.7109 209.721 50.0601 224.824 57.4224 236.258L57.4229 236.259C60.9536 241.767 65.4535 244.938 70.3606 248.396L70.5053 248.498C76.2532 252.548 82.4077 256.328 89.3822 256.328C102.136 256.328 114.435 247.222 123.58 234.77C132.715 222.329 138.6 206.681 138.6 193.827C138.6 178.836 130.357 166.079 119.625 157.597C111.997 151.581 104.453 147.574 92.0465 147.3L45.5053 194.327Z" fill="#2EBEF0" stroke="white"/>
<path d="M107.336 161.394L107.337 161.393C108.97 160.195 111.389 160.227 114.083 161.444C116.761 162.654 119.602 164.995 121.943 168.198C124.285 171.4 125.652 174.816 125.989 177.735C126.328 180.67 125.622 182.989 123.981 184.188C123.143 184.801 122.407 184.968 121.707 184.845C120.982 184.719 120.217 184.269 119.365 183.487C117.915 182.157 116.366 180.021 114.473 177.411C114.121 176.925 113.757 176.424 113.38 175.908L107.336 161.394ZM107.336 161.394C106.55 161.969 106.23 162.694 106.24 163.585M107.336 161.394L106.24 163.585M106.24 163.585C106.251 164.514 106.622 165.638 107.286 166.939M106.24 163.585L107.286 166.939M107.286 166.939C108.408 169.139 110.274 171.678 112.269 174.393M107.286 166.939L112.269 174.393M112.269 174.393C112.636 174.892 113.008 175.398 113.38 175.908L112.269 174.393Z" fill="#2EBEF0" stroke="white"/>
<path d="M68.0249 157.936C61.7828 162.554 56.5932 168.56 52.9093 175.399L68.0249 157.936Z" fill="#2EBEF0"/>
<path d="M68.0249 157.936C61.7828 162.554 56.5932 168.56 52.9093 175.399" stroke="white" stroke-linecap="round" stroke-linejoin="round"/>
<path d="M51.5781 178.76C50.0578 182.107 49.0637 185.702 48.6398 189.355L51.5781 178.76Z" fill="#2EBEF0"/>
<path d="M51.5781 178.76C50.0578 182.107 49.0637 185.702 48.6398 189.355" stroke="white" stroke-linecap="round" stroke-linejoin="round"/>
<path d="M75.3335 156.84C72.1028 159.032 69.1206 161.574 66.4454 164.41L75.3335 156.84Z" fill="#2EBEF0"/>
<path d="M75.3335 156.84C72.1028 159.032 69.1206 161.574 66.4454 164.41" stroke="white" stroke-linecap="round" stroke-linejoin="round"/>
<path d="M134.612 294.94C132.39 301.181 130.153 307.538 129.817 314.158C129.554 319.609 130.767 325.352 133.94 329.721C135.782 332.25 140.006 330.248 139.012 327.281C138.895 326.93 138.72 326.594 138.501 326.302C136.893 324.227 133.647 324.007 131.323 325.22C128.999 326.433 127.42 328.742 126.221 331.08C122.245 338.84 121.295 348.091 123.633 356.494C124.496 359.592 125.914 362.734 128.545 364.59C131.177 366.446 135.285 366.49 137.287 363.962C136.966 361.507 133.735 360.352 131.454 361.302C129.174 362.252 127.771 364.546 126.747 366.797C121.908 377.523 122.713 390.632 128.955 400.628C129.656 401.739 130.87 402.513 132.185 402.498C136.059 402.498 134.963 396.288 131.601 395.761C128.428 395.265 125.651 397.939 124.014 400.701C119.453 408.432 119.628 418.734 124.467 426.304C125.885 428.526 127.887 430.645 130.504 431.054C132.288 431.332 134.276 430.411 135.211 428.964C135.913 427.883 135.153 426.436 133.867 426.407C128.487 426.275 123.94 432.135 122.639 437.732C121.192 443.958 121.718 450.826 118.429 456.321" fill="#2EBEF0"/>
<path d="M134.612 294.94C132.39 301.181 130.153 307.538 129.817 314.158C129.554 319.609 130.767 325.352 133.94 329.721C135.782 332.25 140.006 330.248 139.012 327.281C138.895 326.93 138.72 326.594 138.501 326.302C136.893 324.227 133.647 324.007 131.323 325.22C128.999 326.433 127.42 328.742 126.221 331.08C122.245 338.84 121.295 348.091 123.633 356.494C124.496 359.592 125.914 362.734 128.545 364.59C131.177 366.446 135.285 366.49 137.287 363.962C136.966 361.507 133.735 360.352 131.454 361.302C129.174 362.252 127.771 364.546 126.747 366.797C121.908 377.523 122.713 390.632 128.955 400.628C129.656 401.739 130.87 402.513 132.185 402.498C136.059 402.498 134.963 396.288 131.601 395.761C128.428 395.265 125.651 397.939 124.014 400.701C119.453 408.432 119.628 418.734 124.467 426.304C125.885 428.526 127.887 430.645 130.504 431.054C132.288 431.332 134.276 430.411 135.211 428.964C135.913 427.883 135.153 426.436 133.867 426.407C128.487 426.275 123.94 432.135 122.639 437.732C121.192 443.958 121.718 450.826 118.429 456.321" stroke="white" stroke-width="1.01" stroke-linecap="round" stroke-linejoin="round"/>
<path d="M127.216 309.232L138.729 310.122L137.24 292.04C135.999 291.651 135.08 291.544 134.13 291.433L134.126 291.433C133.211 291.326 132.269 291.216 131.031 290.847C130.364 293.792 129.421 298.332 128.626 302.232C128.204 304.302 127.824 306.19 127.55 307.56C127.412 308.246 127.301 308.801 127.225 309.186L127.216 309.232Z" fill="#2EBEF0" stroke="white"/>
<path d="M85.9205 237.191V237.172V237.162C86.8953 224.332 92.1113 212.687 100.295 204.259L100.296 204.259C108.466 195.831 119.61 190.615 132.463 190.615C145.321 190.615 156.963 195.834 165.382 204.25L165.382 204.25C170.184 209.036 173.93 214.863 176.273 221.369L176.273 221.369C178.051 226.298 179.021 231.619 179.021 237.157C179.021 249.146 176.827 260.785 168.864 272.119L168.863 272.119C164.408 278.471 158.962 285.713 152.904 291.364C146.835 297.025 140.23 301.017 133.457 301.017C129.355 301.017 125.124 299.114 120.982 296.502C118.051 294.653 115.214 292.483 112.526 290.427C111.413 289.575 110.326 288.743 109.268 287.962C103.94 284.024 99.3976 276.773 95.5438 270.621L95.5074 270.563L85.9205 237.191ZM85.9205 237.191L85.9191 237.21M85.9205 237.191L85.9191 237.21M85.9191 237.21C84.907 250.594 88.9581 260.087 95.5071 270.562L85.9191 237.21Z" fill="#2EBEF0" stroke="white"/>
<path d="M109.833 201.646C101.661 206.761 95.3898 214.871 92.5099 224.063L109.833 201.646Z" fill="#2EBEF0"/>
<path d="M109.833 201.646C101.661 206.761 95.3898 214.871 92.5099 224.063" stroke="white" stroke-linecap="round" stroke-linejoin="round"/>
<path d="M91.3701 228.798C90.4784 232.028 89.9229 235.345 89.7475 238.692L91.3701 228.798Z" fill="#2EBEF0"/>
<path d="M91.3701 228.798C90.4784 232.028 89.9229 235.345 89.7475 238.692" stroke="white" stroke-linecap="round" stroke-linejoin="round"/>
<path d="M97.2031 221.857C96.1067 225.262 94.9957 228.667 93.8993 232.087L97.2031 221.857Z" fill="#2EBEF0"/>
<path d="M97.2031 221.857C96.1067 225.262 94.9957 228.667 93.8993 232.087" stroke="white" stroke-linecap="round" stroke-linejoin="round"/>
</g>
<defs>
<clipPath id="clip0_833_17058">
<path d="M0 211C0 94.4679 94.4679 0 211 0V0C327.532 0 422 94.4679 422 211V360H0V211Z" fill="white"/>
</clipPath>
</defs>
</svg>
