<svg width="422" height="360" viewBox="0 0 422 360" fill="none" xmlns="http://www.w3.org/2000/svg">
<path d="M0 211C0 94.4679 94.4679 0 211 0V0C327.532 0 422 94.4679 422 211V360H0V211Z" fill="#7DB713"/>
<path d="M25 214C25 111.275 108.275 28 211 28C313.725 28 397 111.275 397 214V360H25V214Z" fill="#8ED016" fill-opacity="0.7"/>
<path d="M56 213C56 127.396 125.396 58 211 58C296.604 58 366 127.396 366 213V360H56V213Z" fill="#9EE718" fill-opacity="0.7"/>
<path d="M84 212C84 141.86 140.86 85 211 85C281.14 85 338 141.86 338 212V360H84V212Z" fill="#A7E92F" fill-opacity="0.7"/>
<path d="M112 214C112 159.324 156.324 115 211 115C265.676 115 310 159.324 310 214V360H112V214Z" fill="#B1EC46" fill-opacity="0.7"/>
</svg>
