<svg width="422" height="360" viewBox="0 0 422 360" fill="none" xmlns="http://www.w3.org/2000/svg">
<g clip-path="url(#clip0_833_16999)">
<path d="M0 211C0 94.4679 94.4679 0 211 0C327.532 0 422 94.4679 422 211V360H0V211Z" fill="#E60004"/>
<g opacity="0.5">
</g>
<g opacity="0.5">
<path d="M75.6634 115.647L75.6688 115.645C75.4664 115.198 75.2668 114.751 75.0821 114.294C67.6566 95.932 76.7183 73.746 95.8406 66.0132C109.821 60.3598 125.494 64.4841 135.592 73.7317L135.6 73.7285C136.431 60.0612 144.832 46.2018 158.812 40.5484C177.934 32.8156 199.873 42.4654 207.299 60.8279C207.483 61.2845 207.651 61.7449 207.815 62.2064L207.821 62.2042C207.821 62.2042 218.596 83.2277 203.931 116.87C197.356 132.398 189.252 147.903 175.595 172.641C148.582 164.349 131.979 158.835 116.458 152.243C82.5304 138.251 75.6634 115.647 75.6634 115.647Z" fill="#F8696B"/>
<path d="M13.0228 -39.2513L13.0282 -39.2535C12.8258 -39.6998 12.6261 -40.1471 12.4415 -40.6037C5.01596 -58.9662 14.0776 -81.1522 33.2 -88.885C47.1802 -94.5384 62.8532 -90.4141 72.9511 -81.1665L72.9591 -81.1697C73.7906 -94.837 82.1911 -108.696 96.1713 -114.35C115.294 -122.083 137.232 -112.433 144.658 -94.0703C144.843 -93.6137 145.01 -93.1533 145.175 -92.6918L145.18 -92.694C145.18 -92.694 155.956 -71.6705 141.29 -38.028C134.715 -22.5006 126.611 -6.99543 112.955 17.7423C85.9418 9.45065 69.338 3.93708 53.8179 -2.65536C19.8898 -16.6474 13.0228 -39.2513 13.0228 -39.2513Z" fill="#F8696B"/>
<path d="M138.303 270.546L138.308 270.544C138.106 270.098 137.906 269.65 137.721 269.194C130.296 250.831 139.357 228.645 158.48 220.912C172.46 215.259 188.133 219.383 198.231 228.631L198.239 228.628C199.07 214.96 207.471 201.101 221.451 195.448C240.573 187.715 262.512 197.365 269.938 215.727C270.122 216.184 270.29 216.644 270.455 217.106L270.46 217.103C270.46 217.103 281.235 238.127 266.57 271.769C259.995 287.297 251.891 302.802 238.234 327.54C211.222 319.248 194.618 313.734 179.098 307.142C145.17 293.15 138.303 270.546 138.303 270.546Z" fill="#F8696B"/>
<path d="M200.943 425.444L200.948 425.442C200.746 424.996 200.546 424.549 200.361 424.092C192.936 405.729 201.998 383.543 221.12 375.811C235.1 370.157 250.773 374.282 260.871 383.529L260.879 383.526C261.71 369.859 270.111 355.999 284.091 350.346C303.214 342.613 325.152 352.263 332.578 370.625C332.763 371.082 332.93 371.542 333.095 372.004L333.1 372.002C333.1 372.002 343.875 393.025 329.21 426.668C322.635 442.195 314.531 457.7 300.875 482.438C273.862 474.146 257.258 468.633 241.738 462.04C207.81 448.048 200.943 425.444 200.943 425.444Z" fill="#F8696B"/>
</g>
<g opacity="0.5">
<path d="M399.207 -15.1893L399.212 -15.1915C399.01 -15.6377 398.81 -16.0851 398.626 -16.5417C391.2 -34.9042 400.262 -57.0902 419.384 -64.823C433.364 -70.4764 449.037 -66.352 459.135 -57.1045L459.143 -57.1077C459.975 -70.775 468.375 -84.6344 482.355 -90.2878C501.478 -98.0206 523.417 -88.3708 530.842 -70.0083C531.027 -69.5517 531.194 -69.0913 531.359 -68.6298L531.364 -68.632C531.364 -68.632 542.14 -47.6085 527.474 -13.966C520.899 1.56144 512.795 17.0666 499.139 41.8043C472.126 33.5127 455.522 27.9991 440.002 21.4067C406.074 7.41465 399.207 -15.1893 399.207 -15.1893Z" fill="#F8696B"/>
</g>
<g opacity="0.5">
</g>
<g opacity="0.5">
<path d="M195.878 -43.453L195.883 -43.4551C195.681 -43.9014 195.481 -44.3488 195.296 -44.8054C187.871 -63.1679 196.933 -85.3539 216.055 -93.0867C230.035 -98.7401 245.708 -94.6157 255.806 -85.3681L255.814 -85.3714C256.646 -99.0387 265.046 -112.898 279.026 -118.551C298.149 -126.284 320.087 -116.634 327.513 -98.272C327.698 -97.8154 327.865 -97.355 328.03 -96.8935L328.035 -96.8957C328.035 -96.8957 338.811 -75.8722 324.145 -42.2297C317.57 -26.7022 309.466 -11.1971 295.81 13.5407C268.797 5.24899 252.193 -0.264583 236.673 -6.85702C202.745 -20.849 195.878 -43.453 195.878 -43.453Z" fill="#F8696B"/>
<path d="M258.517 111.446L258.522 111.444C258.32 110.997 258.12 110.55 257.936 110.093C250.51 91.7308 259.572 69.5448 278.694 61.812C292.674 56.1586 308.347 60.283 318.445 69.5306L318.453 69.5273C319.285 55.86 327.685 42.0006 341.665 36.3472C360.788 28.6144 382.727 38.2642 390.152 56.6267C390.337 57.0833 390.504 57.5437 390.669 58.0052L390.674 58.003C390.674 58.003 401.45 79.0265 386.784 112.669C380.209 128.196 372.105 143.702 358.449 168.439C331.436 160.148 314.832 154.634 299.312 148.042C265.384 134.05 258.517 111.446 258.517 111.446Z" fill="#F8696B"/>
<path d="M321.156 266.344L321.161 266.342C320.959 265.896 320.759 265.449 320.575 264.992C313.149 246.629 322.211 224.443 341.333 216.711C355.313 211.057 370.986 215.182 381.084 224.429L381.092 224.426C381.924 210.759 390.324 196.899 404.305 191.246C423.427 183.513 445.366 193.163 452.791 211.525C452.976 211.982 453.143 212.442 453.308 212.904L453.313 212.902C453.313 212.902 464.089 233.925 449.424 267.568C442.848 283.095 434.744 298.6 421.088 323.338C394.075 315.046 377.471 309.533 361.951 302.94C328.023 288.948 321.156 266.344 321.156 266.344Z" fill="#F8696B"/>
<path d="M383.794 421.243L383.8 421.241C383.597 420.795 383.398 420.347 383.213 419.891C375.787 401.528 384.849 379.342 403.971 371.609C417.952 365.956 433.625 370.08 443.723 379.328L443.731 379.325C444.562 365.657 452.963 351.798 466.943 346.144C486.065 338.412 508.004 348.061 515.43 366.424C515.614 366.881 515.782 367.341 515.946 367.802L515.952 367.8C515.952 367.8 526.727 388.824 512.062 422.466C505.487 437.994 497.382 453.499 483.726 478.237C456.713 469.945 440.109 464.431 424.589 457.839C390.661 443.847 383.794 421.243 383.794 421.243Z" fill="#F8696B"/>
</g>
<g opacity="0.5">
<path d="M-121.963 85.0778L-121.957 85.0756C-122.16 84.6293 -122.359 84.182 -122.544 83.7254C-129.969 65.3629 -120.908 43.1769 -101.785 35.4441C-87.8052 29.7907 -72.1322 33.915 -62.0343 43.1626L-62.0262 43.1594C-61.1948 29.4921 -52.7942 15.6327 -38.814 9.97928C-19.6917 2.24647 2.24713 11.8963 9.67268 30.2588C9.85732 30.7154 10.0247 31.1758 10.1895 31.6373L10.1948 31.6351C10.1948 31.6351 20.9702 52.6586 6.30488 86.3011C-0.270241 101.829 -8.37437 117.334 -22.0306 142.071C-49.0436 133.78 -65.6474 128.266 -81.1675 121.674C-115.096 107.682 -121.963 85.0778 -121.963 85.0778Z" fill="#F8696B"/>
<path d="M-59.3244 239.976L-59.319 239.974C-59.5214 239.528 -59.721 239.081 -59.9057 238.624C-67.3312 220.262 -58.2695 198.076 -39.1472 190.343C-25.167 184.689 -9.49401 188.814 0.603893 198.061L0.611957 198.058C1.4434 184.391 9.84398 170.531 23.8242 164.878C42.9465 157.145 64.8853 166.795 72.3109 185.157C72.4955 185.614 72.6629 186.074 72.8277 186.536L72.833 186.534C72.833 186.534 83.6084 207.557 68.9431 241.2C62.3679 256.727 54.2638 272.232 40.6075 296.97C13.5946 288.678 -3.0092 283.165 -18.5293 276.572C-52.4574 262.58 -59.3244 239.976 -59.3244 239.976Z" fill="#F8696B"/>
<path d="M3.31478 394.876L3.32017 394.873C3.11781 394.427 2.91813 393.98 2.7335 393.523C-4.69205 375.161 4.36964 352.975 23.492 345.242C37.4722 339.588 53.1452 343.713 63.2431 352.96L63.2511 352.957C64.0826 339.29 72.4831 325.43 86.4633 319.777C105.586 312.044 127.524 321.694 134.95 340.057C135.135 340.513 135.302 340.974 135.467 341.435L135.472 341.433C135.472 341.433 146.248 362.456 131.582 396.099C125.007 411.626 116.903 427.131 103.247 451.869C76.2338 443.577 59.63 438.064 44.1099 431.471C10.1818 417.479 3.31478 394.876 3.31478 394.876Z" fill="#F8696B"/>
</g>
</g>
<defs>
<clipPath id="clip0_833_16999">
<path d="M0 211C0 94.4679 94.4679 0 211 0V0C327.532 0 422 94.4679 422 211V360H0V211Z" fill="white"/>
</clipPath>
</defs>
</svg>
