<svg width="422" height="360" viewBox="0 0 422 360" fill="none" xmlns="http://www.w3.org/2000/svg">
<g clip-path="url(#clip0_833_16943)">
<path d="M0 211C0 94.4679 94.4679 0 211 0V0C327.532 0 422 94.4679 422 211V360H0V211Z" fill="#FF9900"/>
<g opacity="0.4">
<g opacity="0.3">
<rect x="349.734" y="-22.2712" width="48.8372" height="48.8372" transform="rotate(45 349.734 -22.2712)" fill="#FFDB80"/>
<rect x="349.734" y="47.186" width="48.8372" height="48.8372" transform="rotate(45 349.734 47.186)" fill="#FFDB80"/>
<rect x="349.734" y="116.643" width="48.8372" height="48.8372" transform="rotate(45 349.734 116.643)" fill="#FFDB80"/>
<rect x="349.734" y="186.101" width="48.8372" height="48.8372" transform="rotate(45 349.734 186.101)" fill="#FFDB80"/>
<rect x="349.734" y="255.558" width="48.8372" height="48.8372" transform="rotate(45 349.734 255.558)" fill="#FFDB80"/>
<rect x="349.734" y="325.015" width="48.8372" height="48.8372" transform="rotate(45 349.734 325.015)" fill="#FFDB80"/>
</g>
<g opacity="0.3">
<rect x="280.277" y="-57" width="48.8372" height="48.8372" transform="rotate(45 280.277 -57)" fill="#FFCA99"/>
<rect x="280.277" y="12.4573" width="48.8372" height="48.8372" transform="rotate(45 280.277 12.4573)" fill="#FFCA99"/>
<rect x="280.277" y="81.9146" width="48.8372" height="48.8372" transform="rotate(45 280.277 81.9146)" fill="#FFCA99"/>
<rect x="280.277" y="151.372" width="48.8372" height="48.8372" transform="rotate(45 280.277 151.372)" fill="#FFCA99"/>
<rect x="280.277" y="220.829" width="48.8372" height="48.8372" transform="rotate(45 280.277 220.829)" fill="#FFCA99"/>
<rect x="280.277" y="290.287" width="48.8372" height="48.8372" transform="rotate(45 280.277 290.287)" fill="#FFCA99"/>
<rect x="280.277" y="357.573" width="48.8372" height="48.8372" transform="rotate(45 280.277 357.573)" fill="#FFCA99"/>
</g>
<g opacity="0.3">
<rect x="419.192" y="-57" width="48.8372" height="48.8372" transform="rotate(45 419.192 -57)" fill="#FFCA99"/>
<rect x="419.192" y="12.4573" width="48.8372" height="48.8372" transform="rotate(45 419.192 12.4573)" fill="#FFCA99"/>
<rect x="419.192" y="81.9146" width="48.8372" height="48.8372" transform="rotate(45 419.192 81.9146)" fill="#FFCA99"/>
<rect x="419.192" y="151.372" width="48.8372" height="48.8372" transform="rotate(45 419.192 151.372)" fill="#FFCA99"/>
<rect x="419.192" y="220.829" width="48.8372" height="48.8372" transform="rotate(45 419.192 220.829)" fill="#FFCA99"/>
<rect x="419.192" y="290.287" width="48.8372" height="48.8372" transform="rotate(45 419.192 290.287)" fill="#FFCA99"/>
<rect x="419.192" y="357.573" width="48.8372" height="48.8372" transform="rotate(45 419.192 357.573)" fill="#FFCA99"/>
</g>
<g opacity="0.3">
<rect x="141.363" y="-57" width="48.8372" height="48.8372" transform="rotate(45 141.363 -57)" fill="#FFCA99"/>
<rect x="141.363" y="12.4573" width="48.8372" height="48.8372" transform="rotate(45 141.363 12.4573)" fill="#FFCA99"/>
<rect x="141.363" y="81.9146" width="48.8372" height="48.8372" transform="rotate(45 141.363 81.9146)" fill="#FFCA99"/>
<rect x="141.363" y="151.372" width="48.8372" height="48.8372" transform="rotate(45 141.363 151.372)" fill="#FFCA99"/>
<rect x="141.363" y="220.829" width="48.8372" height="48.8372" transform="rotate(45 141.363 220.829)" fill="#FFCA99"/>
<rect x="141.363" y="290.287" width="48.8372" height="48.8372" transform="rotate(45 141.363 290.287)" fill="#FFCA99"/>
<rect x="141.363" y="357.573" width="48.8372" height="48.8372" transform="rotate(45 141.363 357.573)" fill="#FFCA99"/>
</g>
<g opacity="0.3">
<rect x="2.44775" y="-57" width="48.8372" height="48.8372" transform="rotate(45 2.44775 -57)" fill="#FFCA99"/>
<rect x="2.44775" y="12.4573" width="48.8372" height="48.8372" transform="rotate(45 2.44775 12.4573)" fill="#FFCA99"/>
<rect x="2.44775" y="81.9146" width="48.8372" height="48.8372" transform="rotate(45 2.44775 81.9146)" fill="#FFCA99"/>
<rect x="2.44775" y="151.372" width="48.8372" height="48.8372" transform="rotate(45 2.44775 151.372)" fill="#FFCA99"/>
<rect x="2.44775" y="220.829" width="48.8372" height="48.8372" transform="rotate(45 2.44775 220.829)" fill="#FFCA99"/>
<rect x="2.44775" y="290.287" width="48.8372" height="48.8372" transform="rotate(45 2.44775 290.287)" fill="#FFCA99"/>
<rect x="2.44775" y="357.573" width="48.8372" height="48.8372" transform="rotate(45 2.44775 357.573)" fill="#FFCA99"/>
</g>
<g opacity="0.3">
<rect x="71.9053" y="-22.2712" width="48.8372" height="48.8372" transform="rotate(45 71.9053 -22.2712)" fill="#FFDB80"/>
<rect x="71.9053" y="47.186" width="48.8372" height="48.8372" transform="rotate(45 71.9053 47.186)" fill="#FFDB80"/>
<rect x="71.9053" y="116.643" width="48.8372" height="48.8372" transform="rotate(45 71.9053 116.643)" fill="#FFDB80"/>
<rect x="71.9053" y="186.101" width="48.8372" height="48.8372" transform="rotate(45 71.9053 186.101)" fill="#FFDB80"/>
<rect x="71.9053" y="255.558" width="48.8372" height="48.8372" transform="rotate(45 71.9053 255.558)" fill="#FFDB80"/>
<rect x="71.9053" y="325.015" width="48.8372" height="48.8372" transform="rotate(45 71.9053 325.015)" fill="#FFDB80"/>
</g>
<rect x="210.82" y="-22.2712" width="48.8372" height="48.8372" transform="rotate(45 210.82 -22.2712)" fill="#FFDB80"/>
<rect x="210.82" y="47.186" width="48.8372" height="48.8372" transform="rotate(45 210.82 47.186)" fill="#FFDB80"/>
<rect x="210.82" y="116.643" width="48.8372" height="48.8372" transform="rotate(45 210.82 116.643)" fill="#FFDB80"/>
<rect x="210.82" y="186.101" width="48.8372" height="48.8372" transform="rotate(45 210.82 186.101)" fill="#FFDB80"/>
<rect x="210.82" y="255.558" width="48.8372" height="48.8372" transform="rotate(45 210.82 255.558)" fill="#FFDB80"/>
<rect x="210.82" y="325.015" width="48.8372" height="48.8372" transform="rotate(45 210.82 325.015)" fill="#FFDB80"/>
</g>
</g>
<defs>
<clipPath id="clip0_833_16943">
<path d="M0 211C0 94.4679 94.4679 0 211 0V0C327.532 0 422 94.4679 422 211V360H0V211Z" fill="white"/>
</clipPath>
</defs>
</svg>
